<svg xmlns="http://www.w3.org/2000/svg" id="Layer_1" data-name="Layer 1" viewBox="0 0 24 24"><defs><style>.cls-1{fill:none;stroke:#43a043;stroke-miterlimit:10;stroke-width:1.9px}</style></defs><path d="m8.2 22.45-5.11-5.11a2 2 0 0 1 2.85-2.85l1.31 1.31V6.41a2 2 0 0 1 1.75-2 1.91 1.91 0 0 1 2.05 1.89V12l5 .72a1.9 1.9 0 0 1 1.65 1.88 17.16 17.16 0 0 1-1.81 7.67l-.09.18" class="cls-1"/><path d="M11.05 10.65a4.4 4.4 0 0 0 1.46-1 4.75 4.75 0 1 0-6.72 0 4.4 4.4 0 0 0 1.46 1M18.65 3.45 21.5 6.3l-2.85 2.85M13.9 6.3h7.6" class="cls-1"/></svg>
